<?xml version="1.0" encoding="utf-8"?>
<!-- Generator: Adobe Illustrator 24.0.1, SVG Export Plug-In . SVG Version: 6.00 Build 0)  -->
<svg version="1.1" id="Layer_1" xmlns="http://www.w3.org/2000/svg" xmlns:xlink="http://www.w3.org/1999/xlink" x="0px" y="0px" viewBox="0 0 400 400" style="enable-background:new 0 0 400 400;" xml:space="preserve">
  <style type="text/css">
	.st0{opacity:0.21;fill:#020202;enable-background:new    ;}
	.st1{fill:#FFFFFF;}
	.st2{fill:#E6E6E5;}
	.st3{fill:#184275;}
	.st4{fill:#939598;}
	.st5{fill:#FEBC18;}
	.st6{fill:#A41D27;}
</style>
  <title>CL, EJO, AC 2</title>
  <polygon class="st0" points="173.3,115.4 233.1,281.7 96.3,324.1 " />
  <polygon class="st1" points="225.4,278.3 96.3,324.1 41.1,159.9 173.3,115.4 " />
  <rect x="59.5" y="158.3" transform="matrix(0.9479 -0.3185 0.3185 0.9479 -52.4731 36.2251)" class="st2" width="50.1" height="40.7" />
  <rect x="70.7" y="199.7" transform="matrix(0.9479 -0.3185 0.3185 0.9479 -58.8734 52.2083)" class="st2" width="119.2" height="12.9" />
  <rect x="83.2" y="218.3" transform="matrix(0.9479 -0.3185 0.3185 0.9479 -70.1477 58.1659)" class="st2" width="119.2" height="50.7" />
  <rect x="98" y="284.7" transform="matrix(0.9479 -0.3185 0.3185 0.9479 -84.7153 61.1376)" class="st2" width="93.3" height="9.9" />
  <polygon class="st0" points="224.6,105.5 251.6,280.1 109.3,295.7 " />
  <polygon class="st1" points="244.7,275.2 109.3,295.7 86.3,124 224.6,105.5 " />
  <rect x="100.4" y="130.3" transform="matrix(0.9912 -0.1324 0.1324 0.9912 -18.8386 17.9375)" class="st2" width="50.1" height="40.7" />
  <rect x="105" y="180.1" transform="matrix(0.9915 -0.1302 0.1302 0.9915 -22.8913 23.0016)" class="st2" width="119" height="12.9" />
  <rect x="110.7" y="200.2" transform="matrix(0.9912 -0.1324 0.1324 0.9912 -28.3652 24.5352)" class="st2" width="119.2" height="50.7" />
  <rect x="116.7" y="266.1" transform="matrix(0.9912 -0.1324 0.1324 0.9912 -34.4572 24.0106)" class="st2" width="93.3" height="9.9" />
  <path class="st3" d="M149.1,102.5h139c2.8-0.1,5.2,2.1,5.2,4.9v178.5c-0.1,2.8-2.4,5-5.2,4.9h-139c-2.8,0.1-5.2-2.1-5.2-4.9V107.4
	C143.9,104.6,146.3,102.4,149.1,102.5z" />
  <path class="st4" d="M256.2,157.1c-0.7,0-1.3-0.7-1.3-1.4c0-0.5,0.3-0.9,0.7-1.1l12.6-6.8c0.7-0.4,1.5-0.1,1.8,0.5
	c0.4,0.7,0.1,1.5-0.5,1.8l0,0l-12.6,6.8C256.7,157,256.5,157.1,256.2,157.1z" />
  <path class="st4" d="M270.6,238.4c-0.2,0-0.3-0.1-0.5-0.1l-13.4-5.7c-0.7-0.3-1-1.1-0.7-1.8c0.3-0.7,1.1-1,1.8-0.7
	c0,0,0.1,0,0.1,0.1l13.4,5.7c0.7,0.3,1,1.1,0.6,1.8C271.7,238.1,271.2,238.4,270.6,238.4L270.6,238.4z" />
  <path class="st4" d="M278.6,178.3L278.6,178.3l-16,3.2c-0.7,0.1-1.4-0.4-1.5-1.1c-0.1-0.7,0.3-1.3,0.9-1.5h0l16-3.2
	c0.7-0.2,1.4,0.3,1.6,1C279.8,177.4,279.3,178.1,278.6,178.3z" />
  <path class="st4" d="M278.1,211.3L278.1,211.3l-16.2-2.5c-0.7-0.1-1.2-0.8-1.1-1.6c0.1-0.7,0.7-1.2,1.4-1.1h0l16.2,2.5
	c0.7,0.1,1.2,0.8,1.1,1.6C279.5,210.9,278.9,211.4,278.1,211.3L278.1,211.3z" />
  <path class="st5" d="M313.2,160.9c-0.5,0-0.9-0.3-1.1-0.7c-0.4-0.6-0.1-1.5,0.5-1.8c0,0,0,0,0,0l12.6-6.8c0.6-0.4,1.5-0.2,1.9,0.4
	c0.4,0.6,0.2,1.5-0.4,1.9c0,0-0.1,0.1-0.1,0.1l-12.6,6.8C313.7,160.9,313.4,161,313.2,160.9z" />
  <path class="st5" d="M327.6,242.2c-0.2,0-0.3-0.1-0.5-0.1l-13.4-5.7c-0.7-0.4-0.9-1.2-0.5-1.8c0.3-0.6,1-0.8,1.7-0.6l13.4,5.7
	c0.7,0.3,1,1.1,0.6,1.8C328.6,242,328.1,242.3,327.6,242.2z" />
  <path class="st5" d="M335.5,182.2L335.5,182.2l-16,3.2c-0.7,0.1-1.4-0.3-1.6-1.1c-0.1-0.7,0.3-1.4,1-1.6l0,0l16-3.2
	c0.7-0.2,1.4,0.3,1.6,1S336.3,182,335.5,182.2L335.5,182.2z" />
  <path class="st5" d="M335.1,215.2L335.1,215.2l-16.2-2.5c-0.7-0.1-1.3-0.8-1.2-1.5c0.1-0.7,0.8-1.3,1.5-1.2l0,0l0,0l16.2,2.5
	c0.7,0.1,1.2,0.8,1.1,1.6C336.4,214.8,335.8,215.2,335.1,215.2L335.1,215.2z" />
  <path class="st5" d="M125.8,155.3c0.7,0,1.3-0.7,1.3-1.4c0-0.5-0.3-0.9-0.7-1.1l-12.6-6.8c-0.7-0.4-1.5-0.1-1.8,0.5
	c-0.4,0.7-0.1,1.5,0.5,1.8l12.6,6.8C125.3,155.3,125.5,155.3,125.8,155.3z" />
  <path class="st5" d="M111.4,236.6c0.2,0,0.3-0.1,0.5-0.1l13.4-5.7c0.7-0.4,0.9-1.2,0.5-1.8c-0.3-0.6-1-0.8-1.7-0.6l-13.4,5.7
	c-0.7,0.3-1,1.1-0.6,1.8C110.4,236.3,110.9,236.6,111.4,236.6L111.4,236.6z" />
  <path class="st5" d="M103.4,176.5L103.4,176.5l16,3.2c0.7,0.2,1.4-0.3,1.6-1c0.2-0.7-0.3-1.4-1-1.6l0,0l-16-3.2
	c-0.7-0.2-1.4,0.3-1.6,1C102.3,175.7,102.7,176.4,103.4,176.5L103.4,176.5z" />
  <path class="st5" d="M103.9,209.6L103.9,209.6l16.2-2.5c0.7-0.1,1.3-0.8,1.2-1.5c-0.1-0.7-0.8-1.3-1.5-1.2l0,0l-16.2,2.5
	c-0.7,0.1-1.2,0.8-1.1,1.6C102.6,209.2,103.2,209.6,103.9,209.6L103.9,209.6z" />
  <polygon class="st0" points="288.8,109.4 292.5,286.1 149.3,282.7 " />
  <polygon class="st1" points="286.3,280.3 149.3,282.7 149.3,109.4 288.8,109.4 " />
  <rect x="159.5" y="120.7" class="st2" width="50.1" height="40.7" />
  <rect x="159.5" y="175.2" class="st2" width="119.2" height="12.9" />
  <rect x="159.5" y="195.8" class="st2" width="119.2" height="50.7" />
  <rect x="159.5" y="260.5" class="st2" width="93.3" height="9.9" />
  <rect x="38.2" y="130.9" transform="matrix(0.851 -0.5252 0.5252 0.851 -64.6891 42.4766)" class="st5" width="8.6" height="8.6" />
  <rect x="43.2" y="109" transform="matrix(0.851 -0.5252 0.5252 0.851 -53.4282 43.6261)" class="st5" width="14" height="14" />
  <rect x="290.6" y="314.6" transform="matrix(0.9909 -0.1343 0.1343 0.9909 -40.1656 42.5111)" class="st5" width="8.6" height="8.6" />
  <rect x="64.1" y="311.2" transform="matrix(0.9909 -0.1343 0.1343 0.9909 -41.9368 12.2405)" class="st5" width="11.3" height="11.3" />
  <rect x="319.6" y="290.5" transform="matrix(0.2396 -0.9709 0.9709 0.2396 -39.9508 538.6609)" class="st5" width="8.6" height="8.6" />
  <polygon class="st5" points="62.6,301.7 65.4,295.9 71.4,298.4 68.5,304.2 " />
  <rect x="321.7" y="306" transform="matrix(0.9176 -0.3975 0.3975 0.9176 -95.7183 153.9799)" class="st5" width="3.7" height="3.7" />
  <path class="st6" d="M217.9,257.7c-33.4,0-60.5-27.1-60.5-60.5c0-33.4,27.1-60.5,60.5-60.5c33.4,0,60.5,27.1,60.5,60.5
	C278.4,230.6,251.3,257.7,217.9,257.7z M217.9,137.8c-32.8,0-59.4,26.6-59.4,59.4s26.6,59.4,59.4,59.4s59.4-26.6,59.4-59.4l0,0
	C277.3,164.4,250.7,137.8,217.9,137.8z M217.9,246.9c-27.4,0-49.7-22.2-49.7-49.7c0-27.4,22.2-49.7,49.7-49.7
	c27.4,0,49.7,22.2,49.7,49.7c0,0,0,0,0,0C267.6,224.6,245.3,246.9,217.9,246.9z M217.9,148.6c-26.8,0-48.6,21.8-48.6,48.6
	s21.8,48.6,48.6,48.6c26.8,0,48.6-21.8,48.6-48.6c0,0,0,0,0,0C266.4,170.4,244.7,148.7,217.9,148.6z" />
  <path class="st6" d="M217.9,235c-20.9,0-37.8-16.9-37.8-37.8s16.9-37.8,37.8-37.8s37.8,16.9,37.8,37.8
	C255.7,218.1,238.8,235,217.9,235z M217.9,160.5c-20.3,0-36.7,16.5-36.7,36.7s16.5,36.7,36.7,36.7s36.7-16.5,36.7-36.7
	C254.6,176.9,238.2,160.5,217.9,160.5z M217.9,224.9c-15.3,0-27.7-12.4-27.7-27.7s12.4-27.7,27.7-27.7s27.7,12.4,27.7,27.7
	C245.6,212.5,233.2,224.9,217.9,224.9z M217.9,170.6c-14.7,0-26.6,11.9-26.7,26.6c0,14.7,11.9,26.6,26.6,26.7
	c14.7,0,26.6-11.9,26.7-26.6c0,0,0,0,0,0C244.5,182.5,232.6,170.6,217.9,170.6L217.9,170.6z" />
  <path class="st6" d="M217.9,213.4c-9,0-16.2-7.3-16.2-16.2c0-9,7.3-16.2,16.2-16.2s16.2,7.3,16.2,16.2c0,0,0,0,0,0
	C234.1,206.2,226.9,213.4,217.9,213.4z M217.9,182.1c-8.3,0-15.1,6.8-15.1,15.1s6.8,15.1,15.1,15.1c8.3,0,15.1-6.8,15.1-15.1
	C233,188.8,226.2,182.1,217.9,182.1z" />
  <polygon class="st6" points="273.7,122.1 275.5,136.7 275.3,137.1 287.5,125 285.7,111.3 " />
  <path class="st6" d="M274,139.2l0.9-2.5l-1.7-14.8l13-11.8l1.9,15L274,139.2z M274.3,122.3l1.6,13.4l11-11l-1.6-12.4L274.3,122.3z" />
  <polygon class="st6" points="292.1,120.3 291,106.5 286.5,110.6 288.1,124.3 " />
  <path class="st6" d="M287.7,125.5l-1.8-15.1l5.5-5l1.2,15.1L287.7,125.5z M287.1,110.8l1.5,12.3l3-3l-1-12.4L287.1,110.8z" />
  <polygon class="st6" points="267,128.2 268.3,144.1 274.8,137.6 273,122.8 " />
  <path class="st6" d="M267.9,145.4l-1.4-17.4l6.9-6.3l2,16.1L267.9,145.4z M267.6,128.4l1.2,14.5l5.5-5.5l-1.7-13.5L267.6,128.4z" />
  <polygon class="st6" points="270.7,146.9 286.1,147.5 300.3,133.4 285.2,132.7 " />
  <path class="st6" d="M286.3,148.1l-16.9-0.7l15.6-15.2l16.5,0.8L286.3,148.1z M272,146.4l13.9,0.6l13.1-13l-13.6-0.6L272,146.4z" />
  <polygon class="st6" points="308.7,125.1 294.2,123.9 286.1,131.9 301.1,132.6 " />
  <path class="st6" d="M301.3,133.2l-16.5-0.8l9.2-9l16,1.3L301.3,133.2z M287.3,131.4l13.5,0.7l6.6-6.6l-13-1L287.3,131.4z" />
  <path class="st6" d="M299.1,119.8l-1.2-1.2l-2.2-2.2l-80.1,79c-0.6,1-0.4,2.4,0.6,3.1c0,0,1.5,1.3,2.5,0.7L299.1,119.8L299.1,119.8z
	" />
  <path class="st6" d="M218.1,199.8c-0.8-0.1-1.6-0.4-2.3-1c-1.2-0.9-1.5-2.5-0.7-3.8l0.1-0.1l80.5-79.4l4.2,4.2L219,199.6
	C218.7,199.7,218.4,199.8,218.1,199.8z M216,195.6c-0.5,0.8-0.2,1.8,0.5,2.3c0.4,0.4,1.4,0.9,1.8,0.7l80-78.9l-2.7-2.7L216,195.6z" />
  <rect x="67.4" y="114" transform="matrix(0.2105 -0.9776 0.9776 0.2105 -58.6729 159.6916)" class="st5" width="4.3" height="4.3" />
  <rect x="86.7" y="97.8" transform="matrix(0.9804 -0.1968 0.1968 0.9804 -17.9289 19.4471)" class="st5" width="4.3" height="4.3" />
</svg>